<mxfile host="app.diagrams.net" modified="2024-04-01T14:28:26.786Z" agent="Mozilla/5.0 (Windows NT 10.0; Win64; x64) AppleWebKit/537.36 (KHTML, like Gecko) Chrome/103.0.0.0 Safari/537.36" etag="zKVfZ6kGukPII3wusr4b" version="24.2.1" type="github">
  <diagram name="第 1 页" id="PsA35Yls-wk2GQEMJQl5">
    <mxGraphModel dx="1050" dy="581" grid="1" gridSize="10" guides="1" tooltips="1" connect="1" arrows="1" fold="1" page="1" pageScale="1" pageWidth="827" pageHeight="1169" math="0" shadow="0">
      <root>
        <mxCell id="0" />
        <mxCell id="1" parent="0" />
        <mxCell id="cJrhul1pVUUtqv-nAzZG-2" value="工作区" style="rounded=0;whiteSpace=wrap;html=1;" parent="1" vertex="1">
          <mxGeometry x="110" y="340" width="120" height="190" as="geometry" />
        </mxCell>
        <mxCell id="cJrhul1pVUUtqv-nAzZG-3" value="" style="rounded=0;whiteSpace=wrap;html=1;" parent="1" vertex="1">
          <mxGeometry x="350" y="340" width="340" height="190" as="geometry" />
        </mxCell>
        <mxCell id="cJrhul1pVUUtqv-nAzZG-4" value="" style="rounded=0;whiteSpace=wrap;html=1;" parent="1" vertex="1">
          <mxGeometry x="370" y="360" width="90" height="150" as="geometry" />
        </mxCell>
        <mxCell id="cJrhul1pVUUtqv-nAzZG-5" value="" style="rounded=0;whiteSpace=wrap;html=1;" parent="1" vertex="1">
          <mxGeometry x="550" y="360" width="90" height="150" as="geometry" />
        </mxCell>
      </root>
    </mxGraphModel>
  </diagram>
</mxfile>
